<svg id="svg" version="1.1" xmlns="http://www.w3.org/2000/svg" xmlns:xlink="http://www.w3.org/1999/xlink" width="400" height="250" viewBox="0, 0, 400,250"><g id="svgg"><path id="path0" d="M0.000 125.000 L 0.000 250.000 100.791 250.000 L 201.583 250.000 201.417 171.813 C 201.326 128.809,201.251 72.559,201.251 46.813 L 201.250 0.000 100.625 0.000 L 0.000 0.000 0.000 125.000 M107.625 26.374 C 117.137 27.422,125.516 31.793,130.875 38.501 C 134.842 43.466,136.914 47.987,138.268 54.625 C 141.468 70.319,129.821 88.799,114.063 93.032 C 113.616 93.152,112.828 93.365,112.313 93.505 C 106.545 95.075,100.248 94.857,93.084 92.839 C 91.279 92.331,90.677 92.511,88.038 94.347 C 79.983 99.953,79.058 100.384,78.268 98.908 C 77.909 98.238,78.033 94.490,78.504 91.750 C 78.658 90.856,78.841 88.749,78.912 87.068 L 79.041 84.010 77.564 82.193 C 75.380 79.504,74.054 77.443,72.956 75.030 C 72.417 73.845,71.869 72.680,71.738 72.441 C 71.607 72.202,71.500 71.787,71.500 71.518 C 71.500 71.249,71.403 70.969,71.284 70.896 C 71.165 70.822,70.997 70.394,70.911 69.944 C 70.824 69.493,70.641 68.619,70.503 68.000 C 66.910 51.867,76.201 34.396,91.375 28.753 C 91.650 28.651,92.156 28.441,92.500 28.287 C 93.986 27.620,97.548 26.813,100.875 26.389 C 104.197 25.965,103.922 25.966,107.625 26.374 M123.207 47.919 C 122.724 48.046,122.277 48.684,121.063 50.980 C 120.584 51.885,119.926 53.103,119.600 53.688 C 119.275 54.273,118.427 55.848,117.716 57.188 C 117.005 58.528,116.344 59.737,116.247 59.875 C 116.150 60.013,115.590 61.025,115.003 62.125 C 114.417 63.225,113.628 64.688,113.251 65.375 C 108.101 74.765,108.002 75.024,109.114 76.136 C 110.179 77.202,111.800 76.814,112.563 75.310 C 113.289 73.881,115.584 69.614,115.757 69.375 C 115.856 69.237,116.471 68.112,117.123 66.875 C 117.776 65.638,118.620 64.063,119.000 63.375 C 119.381 62.688,120.114 61.337,120.630 60.375 C 121.146 59.413,121.875 58.063,122.250 57.375 C 122.625 56.688,123.354 55.337,123.870 54.375 C 124.386 53.413,125.076 52.143,125.404 51.554 C 126.725 49.179,125.583 47.290,123.207 47.919 M92.110 48.467 C 85.057 50.874,85.288 59.069,92.500 62.304 C 92.981 62.519,94.025 62.989,94.820 63.348 C 95.615 63.707,96.314 64.000,96.375 64.000 C 97.410 64.000,101.084 66.454,101.630 67.510 C 103.347 70.830,101.518 73.107,97.125 73.118 C 93.110 73.129,90.502 71.144,90.499 68.075 C 90.497 65.484,87.477 64.346,86.443 66.547 C 85.313 68.956,87.787 74.176,90.805 75.749 C 93.255 77.027,98.847 77.566,100.906 76.724 C 102.873 75.919,103.378 75.633,104.295 74.804 C 107.184 72.194,107.476 67.346,104.913 64.535 C 103.896 63.419,100.984 61.673,98.500 60.689 C 98.156 60.553,97.680 60.342,97.441 60.221 C 97.202 60.099,96.886 60.000,96.738 60.000 C 96.109 60.000,93.106 58.343,92.238 57.518 C 89.622 55.029,91.782 51.521,95.940 51.506 C 99.024 51.494,101.174 53.116,101.753 55.890 C 102.537 59.645,106.000 59.575,106.000 55.804 C 106.000 50.108,98.660 46.231,92.110 48.467 M166.375 104.211 C 171.705 106.619,172.466 112.631,168.455 120.625 C 165.328 126.857,159.676 131.154,152.500 132.756 C 151.744 132.925,151.006 133.093,150.861 133.130 C 150.716 133.167,150.451 133.687,150.273 134.286 C 150.094 134.885,149.847 135.633,149.724 135.949 C 149.324 136.976,149.463 139.873,149.971 141.056 C 151.648 144.971,157.597 143.088,163.531 136.764 C 166.532 133.566,167.434 133.684,168.958 137.471 C 170.299 140.802,169.600 142.364,164.898 146.540 C 150.185 159.611,138.048 153.713,140.377 134.625 C 140.849 130.757,141.048 129.737,141.979 126.438 C 144.936 115.957,152.303 105.896,158.500 103.876 C 160.278 103.296,164.774 103.487,166.375 104.211 M134.882 108.515 C 141.745 112.045,141.254 131.325,133.931 145.891 C 129.120 155.460,121.324 158.194,114.793 152.604 C 113.490 151.488,113.672 151.200,113.041 155.375 C 111.684 164.341,111.640 163.650,113.543 163.295 C 114.275 163.158,115.888 162.917,117.125 162.760 C 118.362 162.603,120.162 162.373,121.125 162.250 C 122.088 162.127,123.859 161.905,125.062 161.758 C 128.133 161.382,130.927 161.040,133.188 160.762 C 135.395 160.490,138.493 160.142,142.125 159.758 C 143.500 159.613,145.637 159.383,146.875 159.248 C 150.399 158.862,155.493 158.932,156.774 159.383 C 161.139 160.923,161.164 166.628,156.811 167.833 C 154.419 168.495,151.146 168.927,138.500 170.253 C 137.056 170.405,135.256 170.630,134.500 170.753 C 133.744 170.877,132.506 171.046,131.750 171.130 C 130.994 171.213,129.588 171.391,128.625 171.524 C 127.662 171.658,126.059 171.876,125.063 172.009 C 124.066 172.141,122.434 172.359,121.438 172.491 C 120.441 172.624,118.838 172.842,117.875 172.975 C 116.912 173.109,115.169 173.341,114.000 173.491 C 110.710 173.914,110.137 174.080,110.059 174.635 C 108.961 182.385,101.500 184.429,101.500 176.981 L 101.500 175.244 100.438 175.385 C 98.037 175.703,94.619 176.256,92.000 176.750 C 91.381 176.867,90.144 177.092,89.250 177.250 C 87.018 177.645,85.617 177.907,84.000 178.229 C 83.244 178.380,80.037 179.018,76.875 179.645 C 66.119 181.781,58.159 183.631,57.788 184.082 C 57.655 184.243,57.038 185.894,56.418 187.750 C 50.355 205.876,41.989 218.285,33.159 222.245 C 24.169 226.278,15.822 221.011,15.930 211.375 C 16.025 202.854,23.283 190.541,32.000 184.111 C 32.756 183.553,33.994 182.637,34.750 182.075 C 38.170 179.535,42.583 177.115,46.552 175.604 C 48.763 174.763,49.996 173.858,49.999 173.075 C 49.999 172.910,51.130 169.380,52.510 165.231 C 53.891 161.082,54.985 157.651,54.941 157.607 C 54.897 157.564,53.929 158.405,52.790 159.477 C 47.062 164.869,41.305 165.512,37.966 161.134 C 34.532 156.631,35.490 149.975,42.358 130.625 C 43.114 128.496,43.248 127.791,43.262 125.875 C 43.291 121.846,43.878 121.129,46.960 121.360 C 52.461 121.772,53.059 124.732,49.772 135.274 C 45.768 148.116,45.506 151.353,48.426 151.901 C 52.696 152.703,56.574 146.180,62.560 128.125 C 63.928 124.000,65.308 120.171,65.627 119.616 C 67.823 115.803,73.993 113.243,76.045 115.295 C 77.151 116.401,77.420 115.288,67.604 150.125 C 65.900 156.175,64.378 161.575,64.223 162.125 C 64.069 162.675,63.856 163.406,63.750 163.750 C 63.644 164.094,63.419 164.881,63.250 165.500 C 62.921 166.701,62.729 167.357,62.300 168.750 C 62.152 169.231,61.952 170.063,61.856 170.598 L 61.681 171.572 62.403 171.389 C 62.800 171.288,63.716 171.104,64.438 170.978 C 65.159 170.853,66.369 170.637,67.125 170.500 C 67.881 170.363,69.147 170.133,69.938 169.989 C 70.728 169.845,71.938 169.620,72.625 169.489 C 73.988 169.228,75.913 168.889,78.250 168.500 C 79.075 168.363,80.453 168.133,81.313 167.989 C 83.216 167.671,85.580 167.308,87.750 167.000 C 88.644 166.873,90.106 166.656,91.000 166.517 C 92.596 166.270,94.015 166.058,97.750 165.506 C 98.781 165.354,100.356 165.134,101.250 165.016 C 103.759 164.687,103.568 164.975,104.462 160.178 C 105.419 155.040,105.412 155.354,104.563 155.944 C 99.639 159.365,94.979 158.673,93.256 154.265 L 92.834 153.186 92.011 154.644 C 87.762 162.174,78.293 162.825,74.997 155.814 C 73.379 152.371,72.847 144.926,73.866 140.000 C 74.108 138.831,74.397 137.425,74.509 136.875 C 74.865 135.122,75.417 133.341,76.757 129.625 C 81.572 116.269,90.847 109.400,97.702 114.115 L 98.950 114.974 99.208 114.299 C 99.350 113.929,99.536 113.377,99.622 113.073 C 100.427 110.210,106.629 110.837,107.465 113.865 C 107.784 115.018,107.481 117.007,106.000 123.500 C 105.890 123.981,105.665 124.994,105.500 125.750 C 105.335 126.506,105.110 127.519,105.000 128.000 C 104.890 128.481,104.665 129.494,104.500 130.250 C 104.335 131.006,104.110 132.019,104.000 132.500 C 101.266 144.487,101.482 147.918,104.863 146.229 C 107.526 144.899,107.201 145.854,110.001 131.125 C 114.245 108.799,114.086 109.279,117.125 109.623 C 120.682 110.025,121.931 110.925,121.638 112.875 C 121.528 113.608,121.562 114.000,121.735 114.000 C 121.881 114.000,122.000 113.909,122.000 113.797 C 122.000 113.355,125.615 109.704,126.658 109.092 C 129.260 107.567,132.586 107.334,134.882 108.515 M159.625 112.541 C 157.308 113.817,151.605 123.438,152.585 124.418 C 153.134 124.967,157.740 122.438,159.722 120.499 C 163.681 116.626,163.605 110.349,159.625 112.541 M126.218 118.466 C 122.686 120.706,120.249 126.467,117.370 139.384 C 115.864 146.141,115.959 146.500,119.250 146.497 C 123.068 146.492,125.951 143.239,128.330 136.250 C 132.358 124.415,131.271 115.262,126.218 118.466 M93.437 121.630 C 88.394 123.482,84.434 129.667,82.877 138.125 C 81.559 145.286,84.377 150.826,88.163 148.518 C 90.115 147.328,92.658 141.704,95.010 133.375 C 95.126 132.963,95.334 132.231,95.472 131.750 C 97.644 124.149,97.781 123.018,96.678 121.813 C 96.079 121.159,94.901 121.092,93.437 121.630 M42.980 188.577 C 31.810 194.766,21.919 209.202,26.216 213.043 C 29.895 216.331,39.891 203.763,45.084 189.322 C 45.907 187.034,45.819 187.004,42.980 188.577 " stroke="none" fill="#8a1499" fill-rule="evenodd"></path><path id="path1" d="M100.875 26.389 C 97.548 26.813,93.986 27.620,92.500 28.287 C 92.156 28.441,91.650 28.651,91.375 28.753 C 76.201 34.396,66.910 51.867,70.503 68.000 C 70.641 68.619,70.824 69.493,70.911 69.944 C 70.997 70.394,71.165 70.822,71.284 70.896 C 71.403 70.969,71.500 71.249,71.500 71.518 C 71.500 71.787,71.607 72.202,71.738 72.441 C 71.869 72.680,72.417 73.845,72.956 75.030 C 74.054 77.443,75.380 79.504,77.564 82.193 L 79.041 84.010 78.912 87.068 C 78.841 88.749,78.658 90.856,78.504 91.750 C 78.033 94.490,77.909 98.238,78.268 98.908 C 79.058 100.384,79.983 99.953,88.038 94.347 C 90.677 92.511,91.279 92.331,93.084 92.839 C 100.248 94.857,106.545 95.075,112.313 93.505 C 112.828 93.365,113.616 93.152,114.063 93.032 C 125.958 89.837,135.686 78.827,138.278 65.625 C 138.664 63.659,138.658 56.536,138.268 54.625 C 136.914 47.987,134.842 43.466,130.875 38.501 C 125.516 31.793,117.137 27.422,107.625 26.374 C 103.922 25.966,104.197 25.965,100.875 26.389 M125.341 48.268 C 126.191 48.936,126.213 50.100,125.404 51.554 C 125.076 52.143,124.386 53.413,123.870 54.375 C 123.354 55.337,122.625 56.688,122.250 57.375 C 121.875 58.063,121.146 59.413,120.630 60.375 C 120.114 61.337,119.381 62.688,119.000 63.375 C 118.620 64.063,117.776 65.638,117.123 66.875 C 116.471 68.112,115.856 69.237,115.757 69.375 C 115.584 69.614,113.289 73.881,112.563 75.310 C 111.800 76.814,110.179 77.202,109.114 76.136 C 108.002 75.024,108.101 74.765,113.251 65.375 C 113.628 64.688,114.417 63.225,115.003 62.125 C 115.590 61.025,116.150 60.013,116.247 59.875 C 116.344 59.737,117.005 58.528,117.716 57.188 C 118.427 55.848,119.275 54.273,119.600 53.688 C 119.926 53.103,120.584 51.885,121.063 50.980 C 122.627 48.023,122.790 47.854,124.154 47.779 C 124.445 47.763,124.979 47.983,125.341 48.268 M99.346 48.281 C 103.589 49.440,106.000 52.166,106.000 55.804 C 106.000 59.575,102.537 59.645,101.753 55.890 C 101.174 53.116,99.024 51.494,95.940 51.506 C 91.782 51.521,89.622 55.029,92.238 57.518 C 93.106 58.343,96.109 60.000,96.738 60.000 C 96.886 60.000,97.202 60.099,97.441 60.221 C 97.680 60.342,98.156 60.553,98.500 60.689 C 100.984 61.673,103.896 63.419,104.913 64.535 C 107.476 67.346,107.184 72.194,104.295 74.804 C 103.378 75.633,102.873 75.919,100.906 76.724 C 98.847 77.566,93.255 77.027,90.805 75.749 C 87.787 74.176,85.313 68.956,86.443 66.547 C 87.477 64.346,90.497 65.484,90.499 68.075 C 90.502 71.144,93.110 73.129,97.125 73.118 C 101.518 73.107,103.347 70.830,101.630 67.510 C 101.084 66.454,97.410 64.000,96.375 64.000 C 96.314 64.000,95.615 63.707,94.820 63.348 C 94.025 62.989,92.981 62.519,92.500 62.304 C 85.288 59.069,85.057 50.874,92.110 48.467 C 93.603 47.957,97.768 47.850,99.346 48.281 M297.695 63.638 C 297.599 63.735,296.418 63.909,295.072 64.026 C 293.726 64.142,292.006 64.353,291.250 64.494 C 290.494 64.636,289.394 64.822,288.807 64.909 C 288.219 64.995,287.678 65.164,287.605 65.283 C 287.531 65.402,287.232 65.500,286.940 65.500 C 286.378 65.500,284.913 65.916,284.191 66.281 C 283.952 66.401,283.537 66.500,283.268 66.500 C 282.999 66.500,282.710 66.612,282.625 66.750 C 282.540 66.888,282.203 67.000,281.875 67.000 C 281.547 67.000,281.210 67.112,281.125 67.250 C 281.040 67.388,280.780 67.500,280.547 67.500 C 280.314 67.500,279.195 67.950,278.061 68.500 C 276.927 69.050,275.903 69.500,275.786 69.500 C 275.605 69.500,271.956 71.489,270.750 72.244 C 270.544 72.373,269.869 72.784,269.250 73.157 C 268.067 73.871,264.849 76.212,263.179 77.572 C 260.721 79.575,253.500 87.115,253.500 87.678 C 253.500 87.803,253.162 88.230,252.750 88.625 C 252.338 89.020,252.000 89.474,252.000 89.633 C 252.000 89.792,251.775 90.126,251.500 90.375 C 251.225 90.624,251.000 90.961,251.000 91.125 C 251.000 91.289,250.775 91.626,250.500 91.875 C 250.225 92.124,250.000 92.425,250.000 92.544 C 250.000 92.663,249.695 93.236,249.321 93.817 C 248.540 95.035,246.000 100.004,246.000 100.315 C 246.000 100.430,245.775 100.990,245.500 101.559 C 245.225 102.128,245.000 102.691,245.000 102.809 C 245.000 102.927,244.775 103.490,244.500 104.059 C 244.225 104.628,244.000 105.275,244.000 105.497 C 244.000 105.719,243.906 106.007,243.790 106.138 C 243.675 106.268,243.431 107.050,243.248 107.875 C 243.066 108.700,242.838 109.487,242.742 109.625 C 242.646 109.763,242.497 110.325,242.410 110.875 C 242.323 111.425,242.138 112.438,241.999 113.125 C 241.268 116.726,241.138 118.522,241.133 125.000 C 241.131 128.781,241.216 132.438,241.324 133.125 C 241.590 134.830,241.993 136.945,242.253 138.000 C 242.371 138.481,242.602 139.438,242.766 140.125 C 242.930 140.813,243.488 142.725,244.007 144.375 C 245.223 148.245,245.235 148.290,245.557 150.500 C 246.100 154.215,245.868 159.557,245.017 162.938 C 244.870 163.522,244.648 164.422,244.522 164.938 C 243.871 167.621,243.463 169.202,243.244 169.893 C 241.152 176.482,249.551 186.005,255.873 184.212 C 256.285 184.096,256.981 184.000,257.421 184.000 C 257.861 184.000,258.290 183.887,258.375 183.750 C 258.460 183.613,258.749 183.500,259.018 183.500 C 259.287 183.500,259.702 183.397,259.941 183.271 C 260.960 182.733,263.639 182.064,267.250 181.445 C 270.941 180.814,277.607 181.227,280.125 182.244 C 280.602 182.436,281.296 182.657,285.000 183.796 C 287.181 184.467,288.710 184.830,292.250 185.517 C 297.760 186.586,306.482 186.584,312.500 185.514 C 315.880 184.913,317.742 184.516,318.375 184.261 C 318.650 184.150,320.056 183.684,321.500 183.224 C 322.944 182.764,324.406 182.245,324.750 182.071 C 325.094 181.896,325.488 181.752,325.625 181.752 C 326.030 181.749,332.531 178.483,333.670 177.710 C 334.245 177.319,334.818 177.000,334.944 177.000 C 335.070 177.000,335.376 176.775,335.625 176.500 C 335.874 176.225,336.183 176.000,336.312 176.000 C 336.548 176.000,337.316 175.453,338.855 174.188 C 339.315 173.809,339.768 173.500,339.863 173.500 C 340.766 173.500,348.792 165.340,351.256 161.917 C 351.734 161.252,352.434 160.338,352.813 159.884 C 353.191 159.430,353.500 158.982,353.500 158.887 C 353.500 158.792,353.837 158.225,354.250 157.625 C 354.663 157.025,355.000 156.460,355.000 156.369 C 355.000 156.277,355.238 155.868,355.529 155.459 C 356.143 154.597,358.500 150.026,358.500 149.698 C 358.500 149.576,358.725 149.010,359.000 148.441 C 359.275 147.872,359.500 147.309,359.500 147.191 C 359.500 147.073,359.725 146.510,360.000 145.941 C 360.275 145.372,360.500 144.709,360.500 144.468 C 360.500 144.227,360.591 143.973,360.702 143.904 C 360.814 143.836,361.060 143.035,361.250 142.125 C 361.440 141.215,361.686 140.414,361.798 140.346 C 361.909 140.277,362.000 139.856,362.000 139.410 C 362.000 138.965,362.101 138.493,362.224 138.362 C 362.348 138.232,362.519 137.619,362.604 137.000 C 362.689 136.381,362.889 135.088,363.048 134.125 C 363.429 131.817,363.432 118.207,363.051 115.875 C 362.894 114.912,362.699 113.675,362.617 113.125 C 362.536 112.575,362.371 111.900,362.252 111.625 C 362.132 111.350,361.965 110.731,361.880 110.250 C 361.796 109.769,361.663 109.008,361.586 108.560 C 361.508 108.112,361.345 107.684,361.222 107.608 C 361.100 107.532,361.000 107.203,361.000 106.875 C 361.000 106.547,360.887 106.210,360.750 106.125 C 360.613 106.040,360.500 105.703,360.500 105.375 C 360.500 105.047,360.387 104.710,360.250 104.625 C 360.113 104.540,360.000 104.273,360.000 104.032 C 360.000 103.791,359.775 103.128,359.500 102.559 C 359.225 101.990,359.000 101.431,359.000 101.317 C 359.000 101.004,355.954 95.025,355.179 93.817 C 354.805 93.236,354.500 92.663,354.500 92.544 C 354.500 92.425,354.275 92.124,354.000 91.875 C 353.725 91.626,353.500 91.289,353.500 91.125 C 353.500 90.961,353.275 90.624,353.000 90.375 C 352.725 90.126,352.500 89.814,352.500 89.682 C 352.500 89.549,352.165 89.032,351.755 88.533 C 351.345 88.034,350.473 86.961,349.817 86.149 C 348.106 84.030,343.577 79.352,342.205 78.285 C 338.641 75.513,335.962 73.500,335.838 73.500 C 335.761 73.500,335.197 73.162,334.586 72.750 C 333.975 72.338,333.429 72.000,333.373 72.000 C 333.318 72.000,332.676 71.647,331.949 71.215 C 329.718 69.892,329.179 69.616,327.625 69.000 C 326.800 68.673,325.756 68.202,325.305 67.953 C 324.854 67.704,324.286 67.500,324.042 67.500 C 323.799 67.500,323.493 67.407,323.363 67.293 C 323.232 67.180,322.619 66.942,322.000 66.765 C 321.381 66.588,320.650 66.359,320.375 66.256 C 319.130 65.791,318.047 65.500,317.560 65.500 C 317.268 65.500,316.969 65.402,316.895 65.283 C 316.822 65.164,316.281 64.995,315.693 64.909 C 315.106 64.822,314.006 64.634,313.250 64.491 C 309.742 63.829,298.141 63.193,297.695 63.638 M301.000 120.250 L 301.000 139.500 297.250 139.500 L 293.500 139.500 293.500 120.250 L 293.500 101.000 297.250 101.000 L 301.000 101.000 301.000 120.250 M311.488 101.895 C 313.721 102.625,314.601 104.235,314.107 106.686 C 313.796 108.230,310.844 109.991,309.732 109.297 C 309.471 109.134,309.087 109.000,308.878 109.000 C 307.817 109.000,306.500 107.062,306.500 105.500 C 306.500 103.873,307.830 102.000,308.985 102.000 C 309.252 102.000,309.540 101.888,309.625 101.750 C 309.833 101.414,310.075 101.433,311.488 101.895 M279.250 110.870 C 280.335 111.074,281.234 111.437,282.813 112.312 C 288.093 115.237,290.393 126.009,287.176 132.750 C 284.395 138.577,279.869 140.385,271.219 139.123 C 270.037 138.951,268.770 139.363,268.337 140.061 C 268.119 140.412,267.534 146.602,267.514 148.778 C 267.486 151.635,263.739 152.751,261.594 150.542 C 259.929 148.828,259.998 149.699,260.018 130.782 C 260.038 111.819,259.964 112.693,261.625 111.819 C 263.549 110.807,263.703 110.794,265.560 111.500 C 266.981 112.040,270.591 112.210,270.875 111.750 C 270.960 111.612,271.249 111.500,271.518 111.500 C 271.787 111.500,272.202 111.397,272.441 111.272 C 273.676 110.622,276.911 110.431,279.250 110.870 M340.346 111.622 C 342.242 112.490,343.488 113.985,344.215 116.268 C 344.637 117.590,344.612 137.057,344.188 137.816 C 343.303 139.398,343.082 139.500,340.535 139.500 C 338.438 139.500,338.089 139.436,337.579 138.956 L 337.000 138.413 336.996 129.019 C 336.993 121.926,336.912 119.395,336.665 118.684 C 335.570 115.542,331.689 114.394,329.374 116.528 C 327.439 118.311,327.500 117.926,327.500 128.430 C 327.500 139.991,327.670 139.479,323.832 139.492 C 321.600 139.500,321.518 139.479,320.769 138.731 L 320.000 137.962 320.000 126.261 C 320.000 113.901,320.038 113.450,321.167 112.465 C 322.087 111.662,323.906 111.497,326.250 112.004 C 328.404 112.469,330.297 112.389,331.875 111.765 C 333.385 111.167,334.104 111.051,336.430 111.027 C 338.656 111.003,339.161 111.080,340.346 111.622 M313.976 111.846 C 314.322 112.262,314.393 138.957,314.050 139.300 C 313.932 139.418,312.213 139.483,310.230 139.445 L 306.625 139.375 306.560 125.778 C 306.514 115.945,306.574 112.087,306.778 111.841 C 307.188 111.347,313.566 111.352,313.976 111.846 M272.375 116.037 C 266.816 118.866,265.701 128.465,270.352 133.454 C 271.065 134.218,271.493 134.473,273.266 135.188 C 275.346 136.027,278.289 133.956,279.928 130.500 C 283.230 123.536,277.857 113.248,272.375 116.037 " stroke="none" fill="#04c4d0" fill-rule="evenodd"></path><path id="path2" d="M201.583 80.438 C 201.674 124.678,201.749 180.928,201.749 205.438 L 201.750 250.000 300.875 250.000 L 400.000 250.000 400.000 125.000 L 400.000 0.000 300.709 0.000 L 201.419 0.000 201.583 80.438 M309.375 63.619 C 312.044 63.938,315.452 64.569,318.000 65.215 C 321.950 66.217,329.025 69.050,331.720 70.708 C 332.428 71.143,333.061 71.500,333.125 71.500 C 333.784 71.500,340.183 76.166,343.343 78.950 C 363.943 97.103,369.861 127.663,357.562 152.375 C 352.819 161.905,343.331 172.477,335.526 176.928 C 334.893 177.289,334.206 177.720,334.000 177.885 C 332.270 179.269,324.754 182.608,320.269 183.985 C 307.643 187.861,295.705 187.632,282.250 183.256 C 274.617 180.773,267.369 180.894,259.750 183.631 C 249.919 187.163,240.819 179.231,243.107 169.125 C 243.294 168.300,243.844 166.106,244.329 164.250 C 246.195 157.115,245.990 151.241,243.635 144.314 C 239.288 131.532,239.665 115.750,244.624 102.875 C 246.716 97.443,249.171 93.006,252.800 88.101 C 265.821 70.501,287.716 61.026,309.375 63.619 M293.924 101.410 C 293.828 101.505,293.750 110.058,293.750 120.417 L 293.750 139.250 297.252 139.250 L 300.753 139.250 300.689 120.313 L 300.625 101.375 297.361 101.306 C 295.566 101.267,294.019 101.314,293.924 101.410 M159.875 103.999 C 146.375 106.012,134.490 140.300,143.793 150.392 C 148.115 155.082,156.420 153.501,164.396 146.471 C 169.577 141.904,170.079 140.611,168.176 136.750 C 166.903 134.167,166.441 134.252,163.055 137.684 C 155.524 145.318,149.130 145.525,149.196 138.133 C 149.225 134.954,150.217 132.500,151.473 132.500 C 155.555 132.500,162.560 128.341,165.978 123.888 C 174.254 113.105,170.953 102.347,159.875 103.999 M129.568 108.362 C 126.839 109.055,124.792 110.615,122.581 113.688 C 121.040 115.829,120.616 115.583,121.236 112.907 C 121.604 111.321,121.299 110.996,118.845 110.357 C 114.838 109.313,114.594 109.602,113.136 117.125 C 110.715 129.613,110.567 130.367,110.246 131.875 C 110.129 132.425,109.906 133.606,109.750 134.500 C 109.594 135.394,109.367 136.575,109.246 137.125 C 109.125 137.675,108.890 138.912,108.724 139.875 C 107.941 144.411,107.387 145.389,104.898 146.629 C 102.437 147.855,101.867 147.292,101.893 143.660 C 101.917 140.162,101.996 139.748,106.512 119.280 C 107.714 113.832,107.427 112.700,104.639 111.890 C 101.833 111.074,100.366 111.674,99.746 113.891 C 99.342 115.331,99.003 115.468,97.908 114.633 C 95.820 113.040,92.370 112.542,89.839 113.468 C 79.643 117.194,70.868 140.537,74.650 153.875 C 76.967 162.047,87.572 162.492,91.618 154.587 C 92.579 152.709,92.784 152.467,93.157 152.776 C 93.345 152.933,93.500 153.277,93.500 153.541 C 93.500 157.412,98.219 158.767,103.060 156.286 C 105.893 154.834,105.878 154.825,105.357 157.543 C 103.758 165.893,104.334 164.959,100.451 165.511 C 89.498 167.070,77.657 168.909,73.125 169.753 C 70.925 170.163,68.563 170.603,67.875 170.731 C 67.188 170.859,65.838 171.098,64.875 171.261 C 63.913 171.424,62.795 171.659,62.391 171.782 C 60.817 172.263,60.425 174.063,66.893 151.125 C 68.599 145.075,70.122 139.675,70.277 139.125 C 70.431 138.575,70.644 137.844,70.750 137.500 C 70.856 137.156,71.083 136.369,71.255 135.750 C 71.427 135.131,71.666 134.287,71.786 133.875 C 72.242 132.308,74.497 124.289,74.865 122.926 C 75.077 122.142,75.427 120.853,75.642 120.063 C 76.825 115.729,75.732 114.262,72.063 115.257 C 67.515 116.489,66.280 118.173,63.253 127.270 C 58.029 142.970,55.214 148.793,51.684 151.204 C 46.426 154.796,44.477 149.504,47.741 140.500 C 47.866 140.156,48.322 138.694,48.755 137.250 C 49.188 135.806,49.742 134.006,49.987 133.250 C 50.232 132.494,50.574 131.369,50.746 130.750 C 50.918 130.131,51.158 129.299,51.279 128.900 C 52.396 125.235,50.593 122.094,47.125 121.661 C 44.320 121.310,43.928 121.855,43.551 126.625 C 43.380 128.788,43.157 129.829,42.510 131.500 C 37.427 144.614,35.444 154.410,37.021 158.624 C 39.588 165.483,47.311 165.188,53.833 157.980 C 56.039 155.543,56.032 155.711,53.639 162.976 C 52.616 166.083,51.372 169.888,50.875 171.431 C 49.918 174.401,49.377 175.137,47.939 175.425 C 47.554 175.502,47.179 175.663,47.105 175.782 C 47.031 175.902,46.773 176.000,46.532 176.000 C 44.996 176.000,36.910 180.789,32.056 184.574 C 13.779 198.826,10.666 223.147,27.125 223.092 C 38.116 223.056,48.017 210.918,56.121 187.547 C 56.851 185.441,57.494 183.673,57.549 183.618 C 57.670 183.497,62.766 182.204,64.875 181.759 C 65.700 181.585,66.713 181.356,67.125 181.250 C 67.537 181.144,68.550 180.923,69.375 180.758 C 70.200 180.594,71.325 180.356,71.875 180.231 C 79.294 178.533,101.003 174.677,101.688 174.936 C 101.906 175.018,102.000 175.733,102.000 177.302 C 102.000 183.586,107.689 182.331,109.427 175.663 C 109.964 173.605,109.853 173.669,113.750 173.149 C 116.971 172.720,118.761 172.474,122.000 172.019 C 127.336 171.268,137.572 169.971,140.875 169.626 C 148.264 168.854,149.150 168.757,151.000 168.511 C 158.213 167.551,159.631 166.789,159.589 163.893 C 159.540 160.456,157.919 159.500,152.150 159.500 C 147.513 159.501,141.700 160.086,123.375 162.395 C 111.498 163.892,111.846 163.858,111.654 163.546 C 111.502 163.300,111.912 159.702,112.500 156.125 C 112.635 155.300,112.819 153.979,112.908 153.189 C 113.140 151.124,113.445 150.996,115.046 152.298 C 123.459 159.138,132.871 152.528,137.008 136.875 C 137.735 134.125,137.960 133.207,138.230 131.875 C 138.398 131.050,138.630 129.981,138.746 129.500 C 140.045 124.106,139.451 115.824,137.477 111.797 C 136.039 108.863,132.923 107.510,129.568 108.362 M274.000 111.174 C 273.656 111.233,272.440 111.567,271.297 111.917 C 269.054 112.605,267.365 112.586,265.615 111.855 C 263.966 111.166,262.208 111.480,261.115 112.659 L 260.500 113.323 260.500 130.916 L 260.500 148.510 261.134 149.514 C 262.429 151.565,264.250 151.978,266.228 150.669 L 267.171 150.045 267.334 147.210 C 267.424 145.651,267.498 143.546,267.499 142.533 C 267.500 140.717,267.514 140.677,268.504 139.687 L 269.508 138.683 271.316 138.886 C 275.759 139.385,279.744 139.189,281.375 138.392 C 285.922 136.170,288.302 131.676,288.294 125.330 C 288.281 115.432,282.518 109.725,274.000 111.174 M333.125 111.651 C 329.255 112.836,329.103 112.855,326.786 112.411 C 323.264 111.736,321.830 111.976,320.864 113.403 C 320.396 114.094,320.375 114.631,320.375 126.084 L 320.375 138.043 321.076 138.647 C 321.689 139.174,322.026 139.250,323.743 139.250 C 327.430 139.250,327.250 139.815,327.250 128.252 C 327.250 117.758,327.223 117.918,329.274 116.162 C 331.094 114.605,333.614 114.701,335.495 116.400 C 337.189 117.930,337.250 118.364,337.250 128.806 L 337.250 138.023 337.864 138.636 C 338.693 139.465,342.316 139.556,343.285 138.772 L 343.875 138.295 343.952 127.585 C 344.036 115.819,344.011 115.565,342.584 113.814 C 340.672 111.469,336.691 110.558,333.125 111.651 M162.370 112.347 C 164.901 114.879,161.391 120.970,155.851 123.658 C 151.981 125.536,151.558 125.113,153.253 121.058 C 156.156 114.109,160.235 110.212,162.370 112.347 M306.867 112.305 C 306.800 112.481,306.774 118.588,306.810 125.875 L 306.875 139.125 310.440 139.194 L 314.004 139.264 313.940 125.694 L 313.875 112.125 310.432 112.055 C 307.816 112.003,306.960 112.063,306.867 112.305 M275.660 115.621 C 277.212 116.082,278.962 117.736,279.878 119.608 C 284.773 129.615,275.524 141.076,269.336 132.670 C 264.255 125.769,268.777 113.578,275.660 115.621 M129.831 118.313 C 131.125 120.044,131.591 125.186,130.779 128.750 C 129.925 132.496,129.634 133.574,128.827 135.994 C 126.084 144.217,122.104 148.114,117.844 146.749 C 115.778 146.087,115.588 145.595,116.248 142.625 C 116.370 142.075,116.707 140.556,116.997 139.250 C 120.319 124.287,123.735 117.569,128.050 117.515 C 129.092 117.502,129.293 117.592,129.831 118.313 M97.103 121.769 C 98.200 123.073,97.852 125.255,95.104 134.297 C 90.859 148.263,87.979 151.878,84.055 148.164 C 81.049 145.318,81.830 136.059,85.704 128.627 C 88.653 122.968,94.932 119.190,97.103 121.769 M46.000 187.519 C 46.000 188.309,44.207 192.716,42.293 196.630 C 36.071 209.356,29.080 216.380,25.850 213.150 C 22.473 209.773,29.598 197.271,38.488 190.975 C 42.839 187.894,46.000 186.440,46.000 187.519 " stroke="none" fill="#fbfbfb" fill-rule="evenodd"></path><path id="path3" d="M294.875 63.627 C 278.120 65.680,262.792 74.596,252.800 88.101 C 251.210 90.251,250.734 90.949,249.187 93.402 C 240.410 107.324,238.139 128.151,243.635 144.314 C 245.990 151.241,246.195 157.115,244.329 164.250 C 243.844 166.106,243.294 168.300,243.107 169.125 C 240.819 179.231,249.919 187.163,259.750 183.631 C 267.369 180.894,274.617 180.773,282.250 183.256 C 295.705 187.632,307.643 187.861,320.269 183.985 C 324.754 182.608,332.270 179.269,334.000 177.885 C 334.206 177.720,334.893 177.289,335.526 176.928 C 340.912 173.857,348.940 166.030,353.276 159.625 C 364.842 142.537,367.152 121.396,359.573 102.000 C 355.767 92.261,348.070 82.192,339.500 75.741 C 338.023 74.628,333.320 71.500,333.125 71.500 C 333.061 71.500,332.428 71.143,331.720 70.708 C 322.672 65.140,307.039 62.136,294.875 63.627 M309.625 63.979 C 310.863 64.118,312.494 64.349,313.250 64.491 C 314.006 64.634,315.106 64.822,315.693 64.909 C 316.281 64.995,316.822 65.164,316.895 65.283 C 316.969 65.402,317.268 65.500,317.560 65.500 C 318.047 65.500,319.130 65.791,320.375 66.256 C 320.650 66.359,321.381 66.588,322.000 66.765 C 322.619 66.942,323.232 67.180,323.363 67.293 C 323.493 67.407,323.799 67.500,324.042 67.500 C 324.286 67.500,324.854 67.704,325.305 67.953 C 325.756 68.202,326.800 68.673,327.625 69.000 C 329.179 69.616,329.718 69.892,331.949 71.215 C 332.676 71.647,333.318 72.000,333.373 72.000 C 333.429 72.000,333.975 72.338,334.586 72.750 C 335.197 73.162,335.761 73.500,335.838 73.500 C 335.962 73.500,338.641 75.513,342.205 78.285 C 343.577 79.352,348.106 84.030,349.817 86.149 C 350.473 86.961,351.345 88.034,351.755 88.533 C 352.165 89.032,352.500 89.549,352.500 89.682 C 352.500 89.814,352.725 90.126,353.000 90.375 C 353.275 90.624,353.500 90.961,353.500 91.125 C 353.500 91.289,353.725 91.626,354.000 91.875 C 354.275 92.124,354.500 92.425,354.500 92.544 C 354.500 92.663,354.805 93.236,355.179 93.817 C 355.954 95.025,359.000 101.004,359.000 101.317 C 359.000 101.431,359.225 101.990,359.500 102.559 C 359.775 103.128,360.000 103.791,360.000 104.032 C 360.000 104.273,360.113 104.540,360.250 104.625 C 360.387 104.710,360.500 105.047,360.500 105.375 C 360.500 105.703,360.613 106.040,360.750 106.125 C 360.887 106.210,361.000 106.547,361.000 106.875 C 361.000 107.203,361.100 107.532,361.222 107.608 C 361.345 107.684,361.508 108.112,361.586 108.560 C 361.663 109.008,361.796 109.769,361.880 110.250 C 361.965 110.731,362.132 111.350,362.252 111.625 C 362.371 111.900,362.536 112.575,362.617 113.125 C 362.699 113.675,362.894 114.912,363.051 115.875 C 363.432 118.207,363.429 131.817,363.048 134.125 C 362.889 135.088,362.689 136.381,362.604 137.000 C 362.519 137.619,362.348 138.232,362.224 138.362 C 362.101 138.493,362.000 138.965,362.000 139.410 C 362.000 139.856,361.909 140.277,361.798 140.346 C 361.686 140.414,361.440 141.215,361.250 142.125 C 361.060 143.035,360.814 143.836,360.702 143.904 C 360.591 143.973,360.500 144.227,360.500 144.468 C 360.500 144.709,360.275 145.372,360.000 145.941 C 359.725 146.510,359.500 147.073,359.500 147.191 C 359.500 147.309,359.275 147.872,359.000 148.441 C 358.725 149.010,358.500 149.576,358.500 149.698 C 358.500 150.026,356.143 154.597,355.529 155.459 C 355.238 155.868,355.000 156.277,355.000 156.369 C 355.000 156.460,354.663 157.025,354.250 157.625 C 353.837 158.225,353.500 158.792,353.500 158.887 C 353.500 158.982,353.191 159.430,352.813 159.884 C 352.434 160.338,351.734 161.252,351.256 161.917 C 348.792 165.340,340.766 173.500,339.863 173.500 C 339.768 173.500,339.315 173.809,338.855 174.188 C 337.316 175.453,336.548 176.000,336.312 176.000 C 336.183 176.000,335.874 176.225,335.625 176.500 C 335.376 176.775,335.070 177.000,334.944 177.000 C 334.818 177.000,334.245 177.319,333.670 177.710 C 332.531 178.483,326.030 181.749,325.625 181.752 C 325.488 181.752,325.094 181.896,324.750 182.071 C 324.406 182.245,322.944 182.764,321.500 183.224 C 320.056 183.684,318.650 184.150,318.375 184.261 C 317.742 184.516,315.880 184.913,312.500 185.514 C 306.482 186.584,297.760 186.586,292.250 185.517 C 288.710 184.830,287.181 184.467,285.000 183.796 C 281.296 182.657,280.602 182.436,280.125 182.244 C 277.607 181.227,270.941 180.814,267.250 181.445 C 263.639 182.064,260.960 182.733,259.941 183.271 C 259.702 183.397,259.287 183.500,259.018 183.500 C 258.749 183.500,258.460 183.613,258.375 183.750 C 258.290 183.887,257.861 184.000,257.421 184.000 C 256.981 184.000,256.285 184.096,255.873 184.212 C 249.551 186.005,241.152 176.482,243.244 169.893 C 243.463 169.202,243.871 167.621,244.522 164.938 C 244.648 164.422,244.870 163.522,245.017 162.938 C 245.868 159.557,246.100 154.215,245.557 150.500 C 245.235 148.290,245.223 148.245,244.007 144.375 C 243.488 142.725,242.930 140.813,242.766 140.125 C 242.602 139.438,242.371 138.481,242.253 138.000 C 241.993 136.945,241.590 134.830,241.324 133.125 C 241.216 132.438,241.131 128.781,241.133 125.000 C 241.138 118.522,241.268 116.726,241.999 113.125 C 242.138 112.438,242.323 111.425,242.410 110.875 C 242.497 110.325,242.646 109.763,242.742 109.625 C 242.838 109.487,243.066 108.700,243.248 107.875 C 243.431 107.050,243.675 106.268,243.790 106.138 C 243.906 106.007,244.000 105.719,244.000 105.497 C 244.000 105.275,244.225 104.628,244.500 104.059 C 244.775 103.490,245.000 102.927,245.000 102.809 C 245.000 102.691,245.225 102.128,245.500 101.559 C 245.775 100.990,246.000 100.430,246.000 100.315 C 246.000 100.004,248.540 95.035,249.321 93.817 C 249.695 93.236,250.000 92.663,250.000 92.544 C 250.000 92.425,250.225 92.124,250.500 91.875 C 250.775 91.626,251.000 91.289,251.000 91.125 C 251.000 90.961,251.225 90.624,251.500 90.375 C 251.775 90.126,252.000 89.792,252.000 89.633 C 252.000 89.474,252.338 89.020,252.750 88.625 C 253.162 88.230,253.500 87.803,253.500 87.678 C 253.500 87.115,260.721 79.575,263.179 77.572 C 264.849 76.212,268.067 73.871,269.250 73.157 C 269.869 72.784,270.544 72.373,270.750 72.244 C 271.956 71.489,275.605 69.500,275.786 69.500 C 275.903 69.500,276.927 69.050,278.061 68.500 C 279.195 67.950,280.314 67.500,280.547 67.500 C 280.780 67.500,281.040 67.388,281.125 67.250 C 281.210 67.112,281.547 67.000,281.875 67.000 C 282.203 67.000,282.540 66.888,282.625 66.750 C 282.710 66.612,282.999 66.500,283.268 66.500 C 283.537 66.500,283.952 66.401,284.191 66.281 C 284.913 65.916,286.378 65.500,286.940 65.500 C 287.232 65.500,287.531 65.402,287.605 65.283 C 287.678 65.164,288.219 64.995,288.807 64.909 C 289.394 64.822,290.494 64.636,291.250 64.494 C 292.006 64.353,293.726 64.142,295.072 64.026 C 296.418 63.909,297.599 63.735,297.695 63.638 C 297.927 63.406,306.773 63.658,309.625 63.979 M293.500 120.250 L 293.500 139.500 297.250 139.500 L 301.000 139.500 301.000 120.250 L 301.000 101.000 297.250 101.000 L 293.500 101.000 293.500 120.250 M300.689 120.313 L 300.753 139.250 297.252 139.250 L 293.750 139.250 293.750 120.417 C 293.750 110.058,293.828 101.505,293.924 101.410 C 294.019 101.314,295.566 101.267,297.361 101.306 L 300.625 101.375 300.689 120.313 M309.665 109.313 C 309.815 109.557,310.789 109.547,311.183 109.297 C 311.361 109.184,311.080 109.106,310.521 109.113 C 309.987 109.120,309.602 109.209,309.665 109.313 M274.125 110.797 C 273.438 110.932,272.680 111.146,272.441 111.272 C 272.202 111.397,271.787 111.500,271.518 111.500 C 271.249 111.500,270.960 111.612,270.875 111.750 C 270.591 112.210,266.981 112.040,265.560 111.500 C 263.703 110.794,263.549 110.807,261.625 111.819 C 259.964 112.693,260.038 111.819,260.018 130.782 C 259.998 149.699,259.929 148.828,261.594 150.542 C 263.739 152.751,267.486 151.635,267.514 148.778 C 267.534 146.602,268.119 140.412,268.337 140.061 C 268.770 139.363,270.037 138.951,271.219 139.123 C 273.989 139.527,279.207 139.534,280.381 139.136 C 287.942 136.569,291.047 125.710,286.748 116.875 C 285.407 114.121,283.702 112.534,280.750 111.296 C 279.248 110.666,276.019 110.423,274.125 110.797 M279.845 111.378 C 290.418 114.132,291.511 133.439,281.375 138.392 C 279.744 139.189,275.759 139.385,271.316 138.886 L 269.508 138.683 268.504 139.687 C 267.514 140.677,267.500 140.717,267.499 142.533 C 267.498 143.546,267.424 145.651,267.334 147.210 L 267.171 150.045 266.228 150.669 C 264.250 151.978,262.429 151.565,261.134 149.514 L 260.500 148.510 260.500 130.916 L 260.500 113.323 261.115 112.659 C 262.208 111.480,263.966 111.166,265.615 111.855 C 267.365 112.586,269.054 112.605,271.297 111.917 C 274.608 110.903,277.357 110.730,279.845 111.378 M333.125 111.310 C 332.712 111.451,332.150 111.656,331.875 111.765 C 330.297 112.389,328.404 112.469,326.250 112.004 C 323.906 111.497,322.087 111.662,321.167 112.465 C 320.038 113.450,320.000 113.901,320.000 126.261 L 320.000 137.962 320.769 138.731 C 321.518 139.479,321.600 139.500,323.832 139.492 C 327.670 139.479,327.500 139.991,327.500 128.430 C 327.500 117.926,327.439 118.311,329.374 116.528 C 331.689 114.394,335.570 115.542,336.665 118.684 C 336.912 119.395,336.993 121.926,336.996 129.019 L 337.000 138.413 337.579 138.956 C 338.461 139.786,342.680 139.772,343.394 138.938 C 344.506 137.637,344.500 137.700,344.500 127.209 C 344.500 115.763,344.458 115.459,342.555 113.236 C 340.859 111.254,336.116 110.286,333.125 111.310 M340.550 112.068 C 343.931 114.049,344.045 114.568,343.952 127.585 L 343.875 138.295 343.285 138.772 C 342.316 139.556,338.693 139.465,337.864 138.636 L 337.250 138.023 337.250 128.806 C 337.250 118.364,337.189 117.930,335.495 116.400 C 333.614 114.701,331.094 114.605,329.274 116.162 C 327.223 117.918,327.250 117.758,327.250 128.252 C 327.250 139.815,327.430 139.250,323.743 139.250 C 322.026 139.250,321.689 139.174,321.076 138.647 L 320.375 138.043 320.375 126.084 C 320.375 114.631,320.396 114.094,320.864 113.403 C 321.830 111.976,323.264 111.736,326.786 112.411 C 329.103 112.855,329.255 112.836,333.125 111.651 C 335.250 111.000,339.096 111.216,340.550 112.068 M306.778 111.841 C 306.574 112.087,306.514 115.945,306.560 125.778 L 306.625 139.375 310.230 139.445 C 312.213 139.483,313.932 139.418,314.050 139.300 C 314.393 138.957,314.322 112.262,313.976 111.846 C 313.566 111.352,307.188 111.347,306.778 111.841 M313.940 125.694 L 314.004 139.264 310.440 139.194 L 306.875 139.125 306.810 125.875 C 306.774 118.588,306.800 112.481,306.867 112.305 C 306.960 112.063,307.816 112.003,310.432 112.055 L 313.875 112.125 313.940 125.694 M272.050 115.897 C 265.099 119.361,265.733 133.022,272.954 135.384 C 276.974 136.698,281.244 131.607,281.244 125.500 C 281.244 118.705,276.454 113.702,272.050 115.897 M276.258 116.200 C 281.956 118.811,282.497 130.914,277.066 134.290 C 275.735 135.117,274.067 135.512,273.266 135.188 C 271.493 134.473,271.065 134.218,270.352 133.454 C 264.137 126.787,268.913 112.833,276.258 116.200 " stroke="none" fill="#8de0f5" fill-rule="evenodd"></path><path id="path4" d="M201.361 124.873 C 201.457 193.621,201.599 249.927,201.676 249.998 C 201.752 250.068,201.734 193.875,201.637 125.125 C 201.539 56.376,201.397 0.070,201.322 0.000 C 201.246 -0.069,201.264 56.124,201.361 124.873 M309.375 101.960 C 304.998 103.554,305.903 109.177,310.526 109.107 C 315.141 109.038,315.460 102.464,310.875 101.901 C 310.325 101.834,309.650 101.860,309.375 101.960 M158.500 103.876 C 152.303 105.896,144.936 115.957,141.979 126.438 C 141.048 129.737,140.849 130.757,140.377 134.625 C 138.048 153.713,150.185 159.611,164.898 146.540 C 169.600 142.364,170.299 140.802,168.958 137.471 C 167.434 133.684,166.532 133.566,163.531 136.764 C 157.597 143.088,151.648 144.971,149.971 141.056 C 149.463 139.873,149.324 136.976,149.724 135.949 C 149.847 135.633,150.094 134.885,150.273 134.286 C 150.451 133.687,150.716 133.167,150.861 133.130 C 151.006 133.093,151.744 132.925,152.500 132.756 C 166.288 129.677,176.148 112.892,168.465 105.575 C 166.523 103.726,161.556 102.879,158.500 103.876 M163.954 103.988 C 175.437 105.649,171.256 123.721,157.829 130.462 C 155.736 131.513,152.657 132.500,151.473 132.500 C 150.217 132.500,149.225 134.954,149.196 138.133 C 149.130 145.525,155.524 145.318,163.055 137.684 C 166.441 134.252,166.903 134.167,168.176 136.750 C 170.079 140.611,169.577 141.904,164.396 146.471 C 155.163 154.609,145.814 155.280,142.159 148.067 C 137.630 139.129,142.754 118.508,151.857 109.035 C 156.081 104.640,159.267 103.311,163.954 103.988 M128.822 108.100 C 126.733 108.777,122.000 112.730,122.000 113.797 C 122.000 113.909,121.881 114.000,121.735 114.000 C 121.562 114.000,121.528 113.608,121.638 112.875 C 121.931 110.925,120.682 110.025,117.125 109.623 C 114.086 109.279,114.245 108.799,110.001 131.125 C 107.201 145.854,107.526 144.899,104.863 146.229 C 101.482 147.918,101.266 144.487,104.000 132.500 C 104.110 132.019,104.335 131.006,104.500 130.250 C 104.665 129.494,104.890 128.481,105.000 128.000 C 105.110 127.519,105.335 126.506,105.500 125.750 C 105.665 124.994,105.890 123.981,106.000 123.500 C 107.481 117.007,107.784 115.018,107.465 113.865 C 106.629 110.837,100.427 110.210,99.622 113.073 C 99.536 113.377,99.350 113.929,99.208 114.299 L 98.950 114.974 97.702 114.115 C 90.847 109.400,81.572 116.269,76.757 129.625 C 75.417 133.341,74.865 135.122,74.509 136.875 C 74.397 137.425,74.108 138.831,73.866 140.000 C 72.847 144.926,73.379 152.371,74.997 155.814 C 78.293 162.825,87.762 162.174,92.011 154.644 L 92.834 153.186 93.256 154.265 C 94.979 158.673,99.639 159.365,104.563 155.944 C 105.412 155.354,105.419 155.040,104.462 160.178 C 103.568 164.975,103.759 164.687,101.250 165.016 C 100.356 165.134,98.781 165.354,97.750 165.506 C 94.015 166.058,92.596 166.270,91.000 166.517 C 90.106 166.656,88.644 166.873,87.750 167.000 C 85.580 167.308,83.216 167.671,81.313 167.989 C 80.453 168.133,79.075 168.363,78.250 168.500 C 75.913 168.889,73.988 169.228,72.625 169.489 C 71.938 169.620,70.728 169.845,69.938 169.989 C 69.147 170.133,67.881 170.363,67.125 170.500 C 66.369 170.637,65.159 170.853,64.438 170.978 C 63.716 171.104,62.800 171.288,62.403 171.389 L 61.681 171.572 61.856 170.598 C 61.952 170.063,62.152 169.231,62.300 168.750 C 62.729 167.357,62.921 166.701,63.250 165.500 C 63.419 164.881,63.644 164.094,63.750 163.750 C 63.856 163.406,64.069 162.675,64.223 162.125 C 64.378 161.575,65.900 156.175,67.604 150.125 C 77.420 115.288,77.151 116.401,76.045 115.295 C 73.993 113.243,67.823 115.803,65.627 119.616 C 65.308 120.171,63.928 124.000,62.560 128.125 C 56.574 146.180,52.696 152.703,48.426 151.901 C 45.506 151.353,45.768 148.116,49.772 135.274 C 53.059 124.732,52.461 121.772,46.960 121.360 C 43.878 121.129,43.291 121.846,43.262 125.875 C 43.248 127.791,43.114 128.496,42.358 130.625 C 35.490 149.975,34.532 156.631,37.966 161.134 C 41.305 165.512,47.062 164.869,52.790 159.477 C 53.929 158.405,54.897 157.564,54.941 157.607 C 54.985 157.651,53.891 161.082,52.510 165.231 C 51.130 169.380,49.999 172.910,49.999 173.075 C 49.996 173.858,48.763 174.763,46.552 175.604 C 42.583 177.115,38.170 179.535,34.750 182.075 C 33.994 182.637,32.756 183.553,32.000 184.111 C 23.283 190.541,16.025 202.854,15.930 211.375 C 15.822 221.011,24.169 226.278,33.159 222.245 C 41.989 218.285,50.355 205.876,56.418 187.750 C 57.038 185.894,57.655 184.243,57.788 184.082 C 58.159 183.631,66.119 181.781,76.875 179.645 C 80.037 179.018,83.244 178.380,84.000 178.229 C 85.617 177.907,87.018 177.645,89.250 177.250 C 90.144 177.092,91.381 176.867,92.000 176.750 C 94.619 176.256,98.037 175.703,100.438 175.385 L 101.500 175.244 101.500 176.981 C 101.500 184.429,108.961 182.385,110.059 174.635 C 110.137 174.080,110.710 173.914,114.000 173.491 C 115.169 173.341,116.912 173.109,117.875 172.975 C 118.838 172.842,120.441 172.624,121.438 172.491 C 122.434 172.359,124.066 172.141,125.063 172.009 C 126.059 171.876,127.662 171.658,128.625 171.524 C 129.588 171.391,130.994 171.213,131.750 171.130 C 132.506 171.046,133.744 170.877,134.500 170.753 C 135.256 170.630,137.056 170.405,138.500 170.253 C 159.142 168.089,160.000 167.833,160.000 163.849 C 160.000 159.620,156.066 158.241,146.875 159.248 C 145.637 159.383,143.500 159.613,142.125 159.758 C 138.493 160.142,135.395 160.490,133.188 160.762 C 130.927 161.040,128.133 161.382,125.062 161.758 C 123.859 161.905,122.088 162.127,121.125 162.250 C 120.162 162.373,118.362 162.603,117.125 162.760 C 115.888 162.917,114.275 163.158,113.543 163.295 C 111.640 163.650,111.684 164.341,113.041 155.375 C 113.672 151.200,113.490 151.488,114.793 152.604 C 121.324 158.194,129.120 155.460,133.931 145.891 C 141.254 131.325,141.745 112.045,134.882 108.515 C 133.395 107.750,130.511 107.553,128.822 108.100 M133.778 108.497 C 138.437 109.826,140.938 120.397,138.746 129.500 C 138.630 129.981,138.398 131.050,138.230 131.875 C 137.960 133.207,137.735 134.125,137.008 136.875 C 132.871 152.528,123.459 159.138,115.046 152.298 C 113.445 150.996,113.140 151.124,112.908 153.189 C 112.819 153.979,112.635 155.300,112.500 156.125 C 111.912 159.702,111.502 163.300,111.654 163.546 C 111.846 163.858,111.498 163.892,123.375 162.395 C 153.593 158.587,157.448 158.530,159.184 161.869 C 159.721 162.900,159.716 165.008,159.175 165.833 C 158.249 167.247,156.708 167.751,151.000 168.511 C 149.150 168.757,148.264 168.854,140.875 169.626 C 137.572 169.971,127.336 171.268,122.000 172.019 C 118.761 172.474,116.971 172.720,113.750 173.149 C 109.853 173.669,109.964 173.605,109.427 175.663 C 107.689 182.331,102.000 183.586,102.000 177.302 C 102.000 175.733,101.906 175.018,101.688 174.936 C 101.003 174.677,79.294 178.533,71.875 180.231 C 71.325 180.356,70.200 180.594,69.375 180.758 C 68.550 180.923,67.537 181.144,67.125 181.250 C 66.713 181.356,65.700 181.585,64.875 181.759 C 62.766 182.204,57.670 183.497,57.549 183.618 C 57.494 183.673,56.851 185.441,56.121 187.547 C 48.017 210.918,38.116 223.056,27.125 223.092 C 10.666 223.147,13.779 198.826,32.056 184.574 C 36.910 180.789,44.996 176.000,46.532 176.000 C 46.773 176.000,47.031 175.902,47.105 175.782 C 47.179 175.663,47.554 175.502,47.939 175.425 C 49.377 175.137,49.918 174.401,50.875 171.431 C 51.372 169.888,52.616 166.083,53.639 162.976 C 56.032 155.711,56.039 155.543,53.833 157.980 C 47.311 165.188,39.588 165.483,37.021 158.624 C 35.444 154.410,37.427 144.614,42.510 131.500 C 43.157 129.829,43.380 128.788,43.551 126.625 C 43.928 121.855,44.320 121.310,47.125 121.661 C 50.593 122.094,52.396 125.235,51.279 128.900 C 51.158 129.299,50.918 130.131,50.746 130.750 C 50.574 131.369,50.232 132.494,49.987 133.250 C 49.742 134.006,49.188 135.806,48.755 137.250 C 48.322 138.694,47.866 140.156,47.741 140.500 C 44.477 149.504,46.426 154.796,51.684 151.204 C 55.214 148.793,58.029 142.970,63.253 127.270 C 66.280 118.173,67.515 116.489,72.063 115.257 C 75.732 114.262,76.825 115.729,75.642 120.063 C 75.427 120.853,75.077 122.142,74.865 122.926 C 74.497 124.289,72.242 132.308,71.786 133.875 C 71.666 134.287,71.427 135.131,71.255 135.750 C 71.083 136.369,70.856 137.156,70.750 137.500 C 70.644 137.844,70.431 138.575,70.277 139.125 C 70.122 139.675,68.599 145.075,66.893 151.125 C 60.425 174.063,60.817 172.263,62.391 171.782 C 62.795 171.659,63.913 171.424,64.875 171.261 C 65.838 171.098,67.188 170.859,67.875 170.731 C 68.563 170.603,70.925 170.163,73.125 169.753 C 77.657 168.909,89.498 167.070,100.451 165.511 C 104.334 164.959,103.758 165.893,105.357 157.543 C 105.878 154.825,105.893 154.834,103.060 156.286 C 98.219 158.767,93.500 157.412,93.500 153.541 C 93.500 153.277,93.345 152.933,93.157 152.776 C 92.784 152.467,92.579 152.709,91.618 154.587 C 87.572 162.492,76.967 162.047,74.650 153.875 C 70.868 140.537,79.643 117.194,89.839 113.468 C 92.370 112.542,95.820 113.040,97.908 114.633 C 99.003 115.468,99.342 115.331,99.746 113.891 C 100.366 111.674,101.833 111.074,104.639 111.890 C 107.427 112.700,107.714 113.832,106.512 119.280 C 101.996 139.748,101.917 140.162,101.893 143.660 C 101.867 147.292,102.437 147.855,104.898 146.629 C 107.387 145.389,107.941 144.411,108.724 139.875 C 108.890 138.912,109.125 137.675,109.246 137.125 C 109.367 136.575,109.594 135.394,109.750 134.500 C 109.906 133.606,110.129 132.425,110.246 131.875 C 110.567 130.367,110.715 129.613,113.136 117.125 C 114.594 109.602,114.838 109.313,118.845 110.357 C 121.299 110.996,121.604 111.321,121.236 112.907 C 120.616 115.583,121.040 115.829,122.581 113.688 C 125.914 109.056,129.657 107.321,133.778 108.497 M159.375 112.213 C 156.925 113.717,152.250 121.541,152.250 124.137 C 152.250 126.266,159.364 122.275,161.524 118.933 C 164.391 114.497,162.957 110.012,159.375 112.213 M162.140 112.605 C 162.949 113.198,162.812 115.796,161.872 117.652 C 160.553 120.260,157.394 122.867,154.134 124.039 C 152.364 124.676,152.331 124.636,153.011 122.706 C 155.506 115.619,159.787 110.882,162.140 112.605 M125.973 118.121 C 122.410 120.457,119.811 126.574,116.997 139.250 C 116.707 140.556,116.370 142.075,116.248 142.625 C 115.588 145.595,115.778 146.087,117.844 146.749 C 122.104 148.114,126.084 144.217,128.827 135.994 C 129.634 133.574,129.925 132.496,130.779 128.750 C 131.211 126.853,131.211 121.396,130.779 120.125 C 129.882 117.492,128.079 116.740,125.973 118.121 M129.368 118.345 C 133.564 122.541,127.989 143.066,121.880 145.911 C 119.547 146.997,116.250 146.439,116.250 144.958 C 116.250 142.941,119.801 129.210,121.280 125.504 C 123.598 119.699,127.377 116.354,129.368 118.345 M92.250 121.794 C 83.472 126.011,78.568 145.706,85.421 149.220 C 89.036 151.074,93.282 143.054,97.120 127.121 C 98.508 121.360,96.873 119.572,92.250 121.794 M96.678 121.813 C 97.473 122.681,97.557 123.324,97.137 125.300 C 96.708 127.314,96.419 128.435,95.472 131.750 C 95.334 132.231,95.126 132.963,95.010 133.375 C 91.396 146.171,88.026 151.093,84.760 148.345 C 79.704 144.090,83.802 127.747,91.148 122.870 C 93.674 121.194,95.748 120.797,96.678 121.813 M42.937 188.191 C 31.731 194.254,21.662 208.962,25.850 213.150 C 29.616 216.916,39.036 205.816,45.004 190.581 C 46.598 186.512,46.420 186.306,42.937 188.191 M45.084 189.322 C 39.891 203.763,29.895 216.331,26.216 213.043 C 21.919 209.202,31.810 194.766,42.980 188.577 C 45.819 187.004,45.907 187.034,45.084 189.322 " stroke="none" fill="#d293cf" fill-rule="evenodd"></path></g></svg>