<?xml version="1.0" standalone="no"?>
<!DOCTYPE svg PUBLIC "-//W3C//DTD SVG 20010904//EN"
 "http://www.w3.org/TR/2001/REC-SVG-20010904/DTD/svg10.dtd">
<svg version="1.0" xmlns="http://www.w3.org/2000/svg"
 width="800.000000pt" height="500.000000pt" viewBox="0 0 800.000000 500.000000"
 preserveAspectRatio="xMidYMid meet">

<g transform="translate(0.000000,500.000000) scale(0.100000,-0.100000)"
fill="#000000" stroke="none">
<path d="M0 2500 l0 -2500 2015 0 2015 0 0 2500 0 2500 -2015 0 -2015 0 0
-2500z m2309 1935 c204 -69 360 -226 427 -431 26 -79 29 -102 28 -209 0 -102
-5 -132 -27 -200 -116 -351 -473 -548 -828 -459 -31 8 -66 14 -78 14 -11 0
-56 -25 -101 -55 -120 -82 -139 -90 -158 -72 -13 14 -13 29 3 146 l18 131 -29
41 c-121 173 -153 254 -161 414 -9 170 36 314 141 452 87 115 229 206 378 244
109 28 275 21 387 -16z m1017 -1524 c78 -35 106 -102 86 -201 -17 -81 -67
-174 -125 -234 -56 -57 -169 -119 -236 -131 -35 -6 -42 -11 -52 -42 -13 -42
-7 -126 11 -148 7 -9 29 -15 54 -15 54 0 129 44 200 116 35 36 60 54 70 51 24
-9 47 -53 53 -97 6 -41 5 -43 -73 -119 -106 -104 -207 -156 -303 -156 -117 0
-180 63 -201 204 -29 185 50 457 187 644 39 53 120 118 168 135 47 16 116 13
161 -7z m-619 -91 c64 -38 88 -130 80 -304 -8 -196 -73 -397 -167 -522 -52
-69 -130 -109 -195 -100 -50 6 -99 28 -131 58 l-22 19 -11 -63 c-6 -35 -14
-90 -17 -122 l-7 -59 34 7 c76 14 619 76 719 82 126 8 173 -3 195 -46 27 -52
18 -93 -26 -115 -16 -9 -104 -24 -196 -36 -251 -30 -704 -89 -734 -95 -20 -4
-27 -14 -37 -50 -14 -54 -60 -104 -94 -104 -41 0 -60 22 -65 77 l-5 50 -92
-14 c-106 -17 -657 -127 -731 -146 l-49 -13 -52 -140 c-94 -255 -175 -397
-298 -520 -99 -100 -158 -128 -262 -129 -73 0 -85 3 -123 29 -113 78 -129 216
-50 409 81 197 275 383 508 489 47 21 92 42 100 46 10 5 120 316 121 342 0 2
-17 -12 -37 -31 -113 -107 -217 -127 -289 -55 -76 76 -67 201 36 509 41 121
60 194 60 227 0 38 5 52 20 63 28 20 98 6 122 -23 38 -47 36 -58 -46 -338 -51
-176 -47 -242 15 -242 44 0 109 70 157 171 22 46 71 173 108 283 55 162 73
205 100 231 43 44 116 72 152 59 24 -9 27 -15 25 -54 -1 -25 -67 -277 -146
-560 -80 -283 -144 -516 -142 -518 1 -2 81 11 176 29 96 17 284 48 419 69
l245 36 17 90 c9 49 15 90 14 91 -1 1 -24 -9 -51 -22 -63 -33 -115 -33 -153 0
-16 14 -33 37 -36 51 -7 26 -7 26 -35 -19 -43 -67 -92 -100 -157 -105 -66 -5
-104 9 -144 54 -47 54 -63 128 -57 258 6 142 33 242 101 381 65 131 125 203
201 241 63 30 116 28 173 -6 l33 -20 11 31 c13 38 43 50 94 39 44 -10 64 -32
64 -69 0 -15 -22 -129 -50 -254 -52 -239 -68 -352 -51 -377 9 -12 14 -12 45 2
19 10 41 28 49 40 8 13 29 102 47 198 65 355 90 464 110 484 18 18 22 18 72 5
51 -14 53 -15 56 -52 l3 -39 36 46 c62 80 169 110 240 66z"/>
<path d="M1845 4036 c-22 -9 -55 -31 -72 -50 -29 -31 -33 -43 -33 -90 0 -77
26 -104 165 -171 63 -29 118 -63 124 -74 16 -29 13 -77 -5 -92 -25 -21 -116
-24 -153 -4 -33 16 -61 65 -61 104 0 25 -34 44 -60 36 -64 -20 -17 -171 68
-214 137 -70 302 -10 319 116 11 84 -44 144 -185 199 -94 36 -124 63 -120 107
2 25 11 36 39 51 32 18 41 18 78 7 52 -15 81 -43 81 -76 0 -25 31 -65 50 -65
6 0 19 9 31 21 23 23 20 58 -10 119 -35 68 -169 108 -256 76z"/>
<path d="M2452 4038 c-6 -7 -72 -126 -146 -263 -89 -162 -136 -258 -134 -274
4 -32 32 -50 56 -35 9 6 66 100 125 210 186 343 178 326 163 349 -16 24 -49
31 -64 13z"/>
<path d="M3167 2730 c-48 -42 -135 -220 -107 -220 26 0 109 52 143 89 90 99
58 214 -36 131z"/>
<path d="M2522 2630 c-68 -41 -120 -166 -177 -419 -30 -130 -27 -141 40 -141
86 0 148 79 201 255 34 114 39 255 11 298 -21 32 -32 33 -75 7z"/>
<path d="M1849 2560 c-53 -28 -107 -88 -139 -156 -83 -173 -76 -372 15 -382
58 -7 98 60 168 288 57 182 65 231 42 253 -21 22 -41 21 -86 -3z"/>
<path d="M840 1222 c-38 -22 -102 -74 -156 -127 -74 -74 -98 -105 -132 -175
-39 -80 -46 -105 -43 -157 2 -34 34 -46 73 -30 40 17 124 105 171 178 67 106
180 351 159 348 -4 -1 -36 -17 -72 -37z"/>
<path d="M4847 2355 c3 -49 6 -100 7 -112 0 -13 5 -23 10 -23 4 0 6 -9 3 -20
-3 -11 -1 -20 5 -20 5 0 7 -4 4 -9 -3 -5 1 -26 10 -47 9 -22 16 -40 15 -41 0
-2 -1 -4 0 -5 8 -26 11 -62 16 -153 5 -99 2 -122 -22 -215 -32 -120 -36 -210
-12 -256 20 -39 90 -102 133 -120 50 -21 110 -17 205 12 104 33 309 44 377 20
22 -8 43 -12 46 -9 3 4 6 1 6 -5 0 -6 7 -9 15 -6 8 4 15 1 15 -5 0 -6 3 -10 8
-9 4 1 25 -3 47 -7 22 -5 46 -8 53 -7 6 2 12 -1 12 -6 0 -5 12 -7 26 -4 15 3
24 1 21 -4 -3 -5 13 -8 36 -5 l41 3 -32 29 c-18 16 -32 31 -32 35 0 3 -73 79
-162 168 -90 90 -216 218 -281 285 l-118 123 28 21 c42 32 43 35 41 132 l-2
90 -3 -92 c-3 -85 -6 -94 -30 -113 -38 -30 -76 -26 -107 11 -24 28 -26 38 -26
126 0 109 -8 123 -11 20 -2 -54 -5 -67 -17 -65 -8 2 -20 11 -26 21 -6 10 -75
82 -153 160 -89 88 -144 151 -147 167 -2 14 -2 -15 1 -65z"/>
<path d="M5375 2200 c-3 -6 1 -7 9 -4 18 7 21 14 7 14 -6 0 -13 -4 -16 -10z"/>
<path d="M5938 1293 c7 -3 16 -2 19 1 4 3 -2 6 -13 5 -11 0 -14 -3 -6 -6z"/>
</g>
</svg>
